<mxfile host="app.diagrams.net" modified="2023-02-02T04:10:00.456Z" agent="5.0 (Windows NT 10.0; Win64; x64) AppleWebKit/537.36 (KHTML, like Gecko) Chrome/109.0.0.0 Safari/537.36" etag="nq4J7UpTf0eLQHS3d-z2" version="20.8.15" type="github">
  <diagram id="r0i476w0nGkbk3gJ0_Lv" name="Page-1">
    <mxGraphModel dx="3804" dy="1156" grid="1" gridSize="10" guides="1" tooltips="1" connect="1" arrows="1" fold="1" page="1" pageScale="1" pageWidth="850" pageHeight="1100" math="0" shadow="0">
      <root>
        <mxCell id="0" />
        <mxCell id="1" parent="0" />
        <mxCell id="w6gXVvgNm-RoWs_gBzWx-16" style="edgeStyle=orthogonalEdgeStyle;rounded=0;orthogonalLoop=1;jettySize=auto;html=1;exitX=1;exitY=0.5;exitDx=0;exitDy=0;strokeWidth=5;" parent="1" source="w6gXVvgNm-RoWs_gBzWx-9" target="w6gXVvgNm-RoWs_gBzWx-1" edge="1">
          <mxGeometry relative="1" as="geometry" />
        </mxCell>
        <mxCell id="w6gXVvgNm-RoWs_gBzWx-9" value="" style="rounded=0;whiteSpace=wrap;html=1;dashed=1;fillColor=none;" parent="1" vertex="1">
          <mxGeometry y="660" width="240" height="580" as="geometry" />
        </mxCell>
        <mxCell id="D3H6iAVsK9Q6wfVwA4nM-1" value="SHOPIFY ADMIN" style="rounded=0;whiteSpace=wrap;html=1;" parent="1" vertex="1">
          <mxGeometry x="425" y="260" width="120" height="60" as="geometry" />
        </mxCell>
        <mxCell id="D3H6iAVsK9Q6wfVwA4nM-3" style="edgeStyle=orthogonalEdgeStyle;rounded=0;orthogonalLoop=1;jettySize=auto;html=1;entryX=0;entryY=0.5;entryDx=0;entryDy=0;" parent="1" source="D3H6iAVsK9Q6wfVwA4nM-2" target="D3H6iAVsK9Q6wfVwA4nM-1" edge="1">
          <mxGeometry relative="1" as="geometry" />
        </mxCell>
        <mxCell id="D3H6iAVsK9Q6wfVwA4nM-5" style="edgeStyle=orthogonalEdgeStyle;rounded=0;orthogonalLoop=1;jettySize=auto;html=1;entryX=0.5;entryY=0;entryDx=0;entryDy=0;" parent="1" source="D3H6iAVsK9Q6wfVwA4nM-2" target="D3H6iAVsK9Q6wfVwA4nM-4" edge="1">
          <mxGeometry relative="1" as="geometry" />
        </mxCell>
        <mxCell id="D3H6iAVsK9Q6wfVwA4nM-2" value="APP BRIDGE" style="rounded=0;whiteSpace=wrap;html=1;" parent="1" vertex="1">
          <mxGeometry x="50" y="260" width="120" height="60" as="geometry" />
        </mxCell>
        <mxCell id="D3H6iAVsK9Q6wfVwA4nM-4" value="RENDER UI ELEMENTS" style="rounded=0;whiteSpace=wrap;html=1;" parent="1" vertex="1">
          <mxGeometry x="50" y="440" width="120" height="60" as="geometry" />
        </mxCell>
        <mxCell id="w6gXVvgNm-RoWs_gBzWx-38" style="edgeStyle=orthogonalEdgeStyle;rounded=0;orthogonalLoop=1;jettySize=auto;html=1;entryX=0.662;entryY=0.025;entryDx=0;entryDy=0;entryPerimeter=0;strokeWidth=3;" parent="1" source="w6gXVvgNm-RoWs_gBzWx-1" target="w6gXVvgNm-RoWs_gBzWx-33" edge="1">
          <mxGeometry relative="1" as="geometry" />
        </mxCell>
        <mxCell id="w6gXVvgNm-RoWs_gBzWx-1" value="" style="whiteSpace=wrap;html=1;aspect=fixed;dashed=1;" parent="1" vertex="1">
          <mxGeometry x="340" y="795" width="310" height="310" as="geometry" />
        </mxCell>
        <mxCell id="w6gXVvgNm-RoWs_gBzWx-10" style="edgeStyle=orthogonalEdgeStyle;rounded=0;orthogonalLoop=1;jettySize=auto;html=1;strokeWidth=3;" parent="1" source="w6gXVvgNm-RoWs_gBzWx-3" target="w6gXVvgNm-RoWs_gBzWx-4" edge="1">
          <mxGeometry relative="1" as="geometry" />
        </mxCell>
        <mxCell id="w6gXVvgNm-RoWs_gBzWx-3" value="Data Collection" style="rounded=0;whiteSpace=wrap;html=1;dashed=1;" parent="1" vertex="1">
          <mxGeometry x="30" y="690" width="180" height="60" as="geometry" />
        </mxCell>
        <mxCell id="w6gXVvgNm-RoWs_gBzWx-12" style="edgeStyle=orthogonalEdgeStyle;rounded=0;orthogonalLoop=1;jettySize=auto;html=1;exitX=0.5;exitY=1;exitDx=0;exitDy=0;strokeWidth=3;" parent="1" source="w6gXVvgNm-RoWs_gBzWx-4" target="w6gXVvgNm-RoWs_gBzWx-5" edge="1">
          <mxGeometry relative="1" as="geometry" />
        </mxCell>
        <mxCell id="w6gXVvgNm-RoWs_gBzWx-4" value="Preprocessing" style="rounded=0;whiteSpace=wrap;html=1;dashed=1;" parent="1" vertex="1">
          <mxGeometry x="30" y="780" width="180" height="60" as="geometry" />
        </mxCell>
        <mxCell id="w6gXVvgNm-RoWs_gBzWx-13" style="edgeStyle=orthogonalEdgeStyle;rounded=0;orthogonalLoop=1;jettySize=auto;html=1;exitX=0.5;exitY=1;exitDx=0;exitDy=0;strokeWidth=3;" parent="1" source="w6gXVvgNm-RoWs_gBzWx-5" target="w6gXVvgNm-RoWs_gBzWx-6" edge="1">
          <mxGeometry relative="1" as="geometry" />
        </mxCell>
        <mxCell id="w6gXVvgNm-RoWs_gBzWx-5" value="Feature Extraction" style="rounded=0;whiteSpace=wrap;html=1;dashed=1;" parent="1" vertex="1">
          <mxGeometry x="30" y="870" width="180" height="60" as="geometry" />
        </mxCell>
        <mxCell id="w6gXVvgNm-RoWs_gBzWx-14" style="edgeStyle=orthogonalEdgeStyle;rounded=0;orthogonalLoop=1;jettySize=auto;html=1;exitX=0.5;exitY=1;exitDx=0;exitDy=0;entryX=0.5;entryY=0;entryDx=0;entryDy=0;strokeWidth=3;" parent="1" source="w6gXVvgNm-RoWs_gBzWx-6" target="w6gXVvgNm-RoWs_gBzWx-7" edge="1">
          <mxGeometry relative="1" as="geometry" />
        </mxCell>
        <mxCell id="w6gXVvgNm-RoWs_gBzWx-6" value="Feature Selection" style="rounded=0;whiteSpace=wrap;html=1;dashed=1;" parent="1" vertex="1">
          <mxGeometry x="30" y="960" width="180" height="60" as="geometry" />
        </mxCell>
        <mxCell id="w6gXVvgNm-RoWs_gBzWx-15" style="edgeStyle=orthogonalEdgeStyle;rounded=0;orthogonalLoop=1;jettySize=auto;html=1;exitX=0.5;exitY=1;exitDx=0;exitDy=0;entryX=0.5;entryY=0;entryDx=0;entryDy=0;strokeWidth=3;" parent="1" source="w6gXVvgNm-RoWs_gBzWx-7" target="w6gXVvgNm-RoWs_gBzWx-8" edge="1">
          <mxGeometry relative="1" as="geometry" />
        </mxCell>
        <mxCell id="w6gXVvgNm-RoWs_gBzWx-7" value="Classification" style="rounded=0;whiteSpace=wrap;html=1;dashed=1;" parent="1" vertex="1">
          <mxGeometry x="30" y="1050" width="180" height="60" as="geometry" />
        </mxCell>
        <mxCell id="w6gXVvgNm-RoWs_gBzWx-8" value="Analysis" style="rounded=0;whiteSpace=wrap;html=1;dashed=1;" parent="1" vertex="1">
          <mxGeometry x="30" y="1140" width="180" height="60" as="geometry" />
        </mxCell>
        <mxCell id="w6gXVvgNm-RoWs_gBzWx-23" value="" style="group" parent="1" vertex="1" connectable="0">
          <mxGeometry x="-360" y="835" width="260" height="230" as="geometry" />
        </mxCell>
        <mxCell id="w6gXVvgNm-RoWs_gBzWx-17" value="" style="rounded=0;whiteSpace=wrap;html=1;dashed=1;fillColor=default;" parent="w6gXVvgNm-RoWs_gBzWx-23" vertex="1">
          <mxGeometry width="260" height="230" as="geometry" />
        </mxCell>
        <mxCell id="w6gXVvgNm-RoWs_gBzWx-18" value="DATA SOURCES" style="text;html=1;strokeColor=none;fillColor=none;align=center;verticalAlign=middle;whiteSpace=wrap;rounded=0;dashed=1;fontStyle=1" parent="w6gXVvgNm-RoWs_gBzWx-23" vertex="1">
          <mxGeometry x="75" y="20" width="110" height="30" as="geometry" />
        </mxCell>
        <mxCell id="w6gXVvgNm-RoWs_gBzWx-19" value="" style="shape=cylinder3;whiteSpace=wrap;html=1;boundedLbl=1;backgroundOutline=1;size=15;fillColor=default;" parent="w6gXVvgNm-RoWs_gBzWx-23" vertex="1">
          <mxGeometry x="30" y="95" width="60" height="80" as="geometry" />
        </mxCell>
        <mxCell id="w6gXVvgNm-RoWs_gBzWx-20" value="HISTORIAL DATA" style="text;html=1;strokeColor=none;fillColor=none;align=left;verticalAlign=middle;whiteSpace=wrap;rounded=0;dashed=1;fontStyle=0" parent="w6gXVvgNm-RoWs_gBzWx-23" vertex="1">
          <mxGeometry x="110" y="90" width="110" height="30" as="geometry" />
        </mxCell>
        <mxCell id="w6gXVvgNm-RoWs_gBzWx-21" value="GOV. &amp;amp; PRIV AGENGIES" style="text;html=1;strokeColor=none;fillColor=none;align=left;verticalAlign=middle;whiteSpace=wrap;rounded=0;dashed=1;fontStyle=0" parent="w6gXVvgNm-RoWs_gBzWx-23" vertex="1">
          <mxGeometry x="110" y="120" width="140" height="30" as="geometry" />
        </mxCell>
        <mxCell id="w6gXVvgNm-RoWs_gBzWx-22" value="OTHER DATA REPOS." style="text;html=1;strokeColor=none;fillColor=none;align=left;verticalAlign=middle;whiteSpace=wrap;rounded=0;dashed=1;fontStyle=0" parent="w6gXVvgNm-RoWs_gBzWx-23" vertex="1">
          <mxGeometry x="110" y="150" width="140" height="30" as="geometry" />
        </mxCell>
        <mxCell id="w6gXVvgNm-RoWs_gBzWx-25" style="edgeStyle=orthogonalEdgeStyle;rounded=0;orthogonalLoop=1;jettySize=auto;html=1;exitX=1;exitY=0.5;exitDx=0;exitDy=0;entryX=0;entryY=0.5;entryDx=0;entryDy=0;strokeWidth=5;" parent="1" source="w6gXVvgNm-RoWs_gBzWx-17" target="w6gXVvgNm-RoWs_gBzWx-9" edge="1">
          <mxGeometry relative="1" as="geometry" />
        </mxCell>
        <mxCell id="w6gXVvgNm-RoWs_gBzWx-35" style="edgeStyle=orthogonalEdgeStyle;rounded=0;orthogonalLoop=1;jettySize=auto;html=1;exitX=0.145;exitY=0;exitDx=0;exitDy=4.35;exitPerimeter=0;strokeWidth=3;" parent="1" source="w6gXVvgNm-RoWs_gBzWx-33" edge="1">
          <mxGeometry relative="1" as="geometry">
            <mxPoint x="465" y="1110" as="targetPoint" />
          </mxGeometry>
        </mxCell>
        <mxCell id="w6gXVvgNm-RoWs_gBzWx-33" value="DB" style="shape=cylinder3;whiteSpace=wrap;html=1;boundedLbl=1;backgroundOutline=1;size=15;fillColor=default;" parent="1" vertex="1">
          <mxGeometry x="456" y="1160" width="60" height="80" as="geometry" />
        </mxCell>
        <mxCell id="w6gXVvgNm-RoWs_gBzWx-42" style="edgeStyle=orthogonalEdgeStyle;rounded=0;orthogonalLoop=1;jettySize=auto;html=1;exitX=0.5;exitY=1;exitDx=0;exitDy=0;entryX=0.5;entryY=0;entryDx=0;entryDy=0;strokeWidth=3;" parent="1" source="w6gXVvgNm-RoWs_gBzWx-39" target="w6gXVvgNm-RoWs_gBzWx-40" edge="1">
          <mxGeometry relative="1" as="geometry" />
        </mxCell>
        <mxCell id="w6gXVvgNm-RoWs_gBzWx-39" value="INPUT" style="rounded=0;whiteSpace=wrap;html=1;fillColor=default;" parent="1" vertex="1">
          <mxGeometry x="435" y="820" width="120" height="60" as="geometry" />
        </mxCell>
        <mxCell id="w6gXVvgNm-RoWs_gBzWx-44" style="edgeStyle=orthogonalEdgeStyle;rounded=0;orthogonalLoop=1;jettySize=auto;html=1;entryX=0.5;entryY=0;entryDx=0;entryDy=0;strokeWidth=3;" parent="1" source="w6gXVvgNm-RoWs_gBzWx-40" target="w6gXVvgNm-RoWs_gBzWx-41" edge="1">
          <mxGeometry relative="1" as="geometry" />
        </mxCell>
        <mxCell id="w6gXVvgNm-RoWs_gBzWx-40" value="PROCESSING&amp;nbsp;" style="rounded=0;whiteSpace=wrap;html=1;fillColor=default;" parent="1" vertex="1">
          <mxGeometry x="435" y="910" width="120" height="60" as="geometry" />
        </mxCell>
        <mxCell id="w6gXVvgNm-RoWs_gBzWx-41" value="OUTPUT" style="rounded=0;whiteSpace=wrap;html=1;fillColor=default;" parent="1" vertex="1">
          <mxGeometry x="435" y="1000" width="120" height="60" as="geometry" />
        </mxCell>
        <mxCell id="w6gXVvgNm-RoWs_gBzWx-45" value="image &amp;amp; related data" style="text;html=1;strokeColor=none;fillColor=none;align=center;verticalAlign=middle;whiteSpace=wrap;rounded=0;" parent="1" vertex="1">
          <mxGeometry x="355" y="835" width="70" height="30" as="geometry" />
        </mxCell>
        <mxCell id="Lr86kAt-LkLu1jlysnGh-1" value="Student Data" style="rounded=0;whiteSpace=wrap;html=1;dashed=1;fillColor=none;" parent="1" vertex="1">
          <mxGeometry x="-545" y="1580" width="240" height="260" as="geometry" />
        </mxCell>
        <mxCell id="xdr7BHve0YtLqMGN8Wft-14" value="" style="group" vertex="1" connectable="0" parent="1">
          <mxGeometry x="-100" y="1680" width="740" height="210" as="geometry" />
        </mxCell>
        <mxCell id="xdr7BHve0YtLqMGN8Wft-1" value="" style="rounded=0;whiteSpace=wrap;html=1;" vertex="1" parent="xdr7BHve0YtLqMGN8Wft-14">
          <mxGeometry x="70" y="30" width="300" height="180" as="geometry" />
        </mxCell>
        <mxCell id="xdr7BHve0YtLqMGN8Wft-2" value="" style="rounded=0;whiteSpace=wrap;html=1;" vertex="1" parent="xdr7BHve0YtLqMGN8Wft-14">
          <mxGeometry x="375" y="30" width="300" height="180" as="geometry" />
        </mxCell>
        <mxCell id="xdr7BHve0YtLqMGN8Wft-5" value="" style="endArrow=none;html=1;rounded=0;" edge="1" parent="xdr7BHve0YtLqMGN8Wft-14" target="xdr7BHve0YtLqMGN8Wft-2">
          <mxGeometry width="50" height="50" relative="1" as="geometry">
            <mxPoint x="375" y="130" as="sourcePoint" />
            <mxPoint x="425" y="80" as="targetPoint" />
          </mxGeometry>
        </mxCell>
        <mxCell id="xdr7BHve0YtLqMGN8Wft-6" value="" style="endArrow=none;html=1;rounded=0;entryX=1;entryY=0.5;entryDx=0;entryDy=0;exitX=0;exitY=0.5;exitDx=0;exitDy=0;" edge="1" parent="xdr7BHve0YtLqMGN8Wft-14" source="xdr7BHve0YtLqMGN8Wft-2" target="xdr7BHve0YtLqMGN8Wft-2">
          <mxGeometry width="50" height="50" relative="1" as="geometry">
            <mxPoint x="390" y="240" as="sourcePoint" />
            <mxPoint x="120" y="380" as="targetPoint" />
          </mxGeometry>
        </mxCell>
        <mxCell id="xdr7BHve0YtLqMGN8Wft-7" value="" style="endArrow=none;html=1;rounded=0;entryX=1;entryY=0.5;entryDx=0;entryDy=0;exitX=0;exitY=0.5;exitDx=0;exitDy=0;" edge="1" parent="xdr7BHve0YtLqMGN8Wft-14">
          <mxGeometry width="50" height="50" relative="1" as="geometry">
            <mxPoint x="70" y="119.5" as="sourcePoint" />
            <mxPoint x="370" y="119.5" as="targetPoint" />
          </mxGeometry>
        </mxCell>
        <mxCell id="xdr7BHve0YtLqMGN8Wft-8" value="70 inches" style="text;html=1;strokeColor=none;fillColor=none;align=center;verticalAlign=middle;whiteSpace=wrap;rounded=0;" vertex="1" parent="xdr7BHve0YtLqMGN8Wft-14">
          <mxGeometry x="200" width="60" height="30" as="geometry" />
        </mxCell>
        <mxCell id="xdr7BHve0YtLqMGN8Wft-9" value="70 inches" style="text;html=1;strokeColor=none;fillColor=none;align=center;verticalAlign=middle;whiteSpace=wrap;rounded=0;" vertex="1" parent="xdr7BHve0YtLqMGN8Wft-14">
          <mxGeometry x="510" width="60" height="30" as="geometry" />
        </mxCell>
        <mxCell id="xdr7BHve0YtLqMGN8Wft-10" value="* 5 ft" style="text;html=1;strokeColor=none;fillColor=none;align=center;verticalAlign=middle;whiteSpace=wrap;rounded=0;" vertex="1" parent="xdr7BHve0YtLqMGN8Wft-14">
          <mxGeometry y="105" width="60" height="30" as="geometry" />
        </mxCell>
        <mxCell id="xdr7BHve0YtLqMGN8Wft-11" value="* 5 ft" style="text;html=1;strokeColor=none;fillColor=none;align=center;verticalAlign=middle;whiteSpace=wrap;rounded=0;" vertex="1" parent="xdr7BHve0YtLqMGN8Wft-14">
          <mxGeometry x="680" y="105" width="60" height="30" as="geometry" />
        </mxCell>
      </root>
    </mxGraphModel>
  </diagram>
</mxfile>
